<svg class="scene scene--shadows" data-motion="off" data-scene-id="shadow-01-morning-meet" viewBox="0 0 1200 800" role="img" aria-labelledby="title" aria-describedby="desc" preserveAspectRatio="xMidYMid meet" xmlns="http://www.w3.org/2000/svg"><title id="title">A boy waves at his own long, thin shadow stretched across the sunny morning grass.</title><desc id="desc">Leo greeting his long morning shadow on the grass. Fresh morning greens with long amber light.</desc><defs><linearGradient id="shadowSky1" x1="0" y1="0" x2="0" y2="1"><stop offset="0%" stop-color="#6d8ea6" stop-opacity="1"></stop><stop offset="62%" stop-color="#efb978" stop-opacity="1"></stop><stop offset="100%" stop-color="#f0ad72" stop-opacity="1"></stop></linearGradient><linearGradient id="shadowSky2" x1="0" y1="0" x2="0" y2="1"><stop offset="0%" stop-color="#617995" stop-opacity="1"></stop><stop offset="62%" stop-color="#dc9c70" stop-opacity="1"></stop><stop offset="100%" stop-color="#f0ad72" stop-opacity="1"></stop></linearGradient><linearGradient id="shadowSky3" x1="0" y1="0" x2="0" y2="1"><stop offset="0%" stop-color="#506982" stop-opacity="1"></stop><stop offset="62%" stop-color="#bd806d" stop-opacity="1"></stop><stop offset="100%" stop-color="#f0ad72" stop-opacity="1"></stop></linearGradient><linearGradient id="shadowSky4" x1="0" y1="0" x2="0" y2="1"><stop offset="0%" stop-color="#405570" stop-opacity="1"></stop><stop offset="62%" stop-color="#98666d" stop-opacity="1"></stop><stop offset="100%" stop-color="#f0ad72" stop-opacity="1"></stop></linearGradient><linearGradient id="shadowSky5" x1="0" y1="0" x2="0" y2="1"><stop offset="0%" stop-color="#303d61" stop-opacity="1"></stop><stop offset="62%" stop-color="#d36f55" stop-opacity="1"></stop><stop offset="100%" stop-color="#f0ad72" stop-opacity="1"></stop></linearGradient><linearGradient id="shadowSky6" x1="0" y1="0" x2="0" y2="1"><stop offset="0%" stop-color="#1d2d4d" stop-opacity="1"></stop><stop offset="62%" stop-color="#686386" stop-opacity="1"></stop><stop offset="100%" stop-color="#f0ad72" stop-opacity="1"></stop></linearGradient><linearGradient id="shadowSky7" x1="0" y1="0" x2="0" y2="1"><stop offset="0%" stop-color="#0d1730" stop-opacity="1"></stop><stop offset="62%" stop-color="#26375b" stop-opacity="1"></stop><stop offset="100%" stop-color="#f0ad72" stop-opacity="1"></stop></linearGradient><linearGradient id="shadowGrassWarm" x1="0" y1="0" x2="1" y2="1"><stop offset="0%" stop-color="#667f53" stop-opacity="1"></stop><stop offset="55%" stop-color="#3f624c" stop-opacity="1"></stop><stop offset="100%" stop-color="#263c43" stop-opacity="1"></stop></linearGradient><linearGradient id="shadowGrassCool" x1="0" y1="0" x2="0" y2="1"><stop offset="0%" stop-color="#344f52" stop-opacity="1"></stop><stop offset="100%" stop-color="#17283a" stop-opacity="1"></stop></linearGradient><linearGradient id="shadowRoomWall" x1="0" y1="0" x2="1" y2="1"><stop offset="0%" stop-color="#17213e" stop-opacity="1"></stop><stop offset="62%" stop-color="#28345e" stop-opacity="1"></stop><stop offset="100%" stop-color="#3b416b" stop-opacity="1"></stop></linearGradient><linearGradient id="shadowQuilt" x1="0" y1="0" x2="1" y2="1"><stop offset="0%" stop-color="#8390c4" stop-opacity="1"></stop><stop offset="55%" stop-color="#58689f" stop-opacity="1"></stop><stop offset="100%" stop-color="#353f73" stop-opacity="1"></stop></linearGradient><radialGradient id="shadowVignette" cx="0.5" cy="0.5" r="0.5"><stop offset="55%" stop-color="#0b1020" stop-opacity="0"></stop><stop offset="100%" stop-color="#0b1020" stop-opacity="0.42"></stop></radialGradient></defs><g data-scene-art="true" data-cinematic-scene="shadow-01-morning-meet" data-time-index="1"><defs><radialGradient id="fill-light" cx="50%" cy="38%" r="65%"><stop offset="0" stop-color="#8fb4c7" stop-opacity="0.2"></stop><stop offset="1" stop-color="#8fb4c7" stop-opacity="0"></stop></radialGradient><radialGradient id="contact-ao" cx="50%" cy="50%" r="50%"><stop offset="0" stop-color="#120f1c" stop-opacity="0.42"></stop><stop offset="1" stop-color="#120f1c" stop-opacity="0"></stop></radialGradient><linearGradient id="rim-light" x1="0.9" y1="0.56" x2="0.1" y2="0.44"><stop offset="0" stop-color="#ffe4b4" stop-opacity="0.32"></stop><stop offset="1" stop-color="#ffe4b4" stop-opacity="0"></stop></linearGradient><radialGradient id="shadow-sun-1" gradientUnits="userSpaceOnUse" cx="60" cy="420" r="330"><stop offset="0" stop-color="#ffb65d" stop-opacity="0.58"></stop><stop offset="0.6" stop-color="#ffb65d" stop-opacity="0.23"></stop><stop offset="1" stop-color="#ffb65d" stop-opacity="0"></stop></radialGradient></defs><rect width="1200" height="800" fill="url(#shadowSky1)"></rect><rect width="1200" height="800" fill="url(#fill-light)" opacity="0.18" data-lighting="fill"></rect><g data-depth="far" opacity="0.88"><g data-lighting="practical" data-practical-source="low-sun"><circle cx="62" cy="420" r="100.80000000000001" fill="url(#shadow-sun-1)"></circle><circle cx="62" cy="420" r="48" fill="#ffd388"></circle><circle cx="50.480000000000004" cy="407.52" r="13.440000000000001" fill="#fff4ca" opacity="0.62"></circle></g><path d="M0,522 C180,420 342,438 510,370 C692,294 900,360 1200,276 L1200,598 L0,598 Z" fill="#66736c"></path><path d="M0,568 C246,480 444,522 632,446 C850,358 1018,430 1200,394 L1200,628 L0,628 Z" fill="#465c58"></path></g><g data-depth="mid"><g data-cover-parity="geometry"><path d="M0,544 C252,516 456,554 678,526 C896,496 1064,528 1200,502 L1200,800 L0,800 Z" fill="url(#shadowGrassWarm)"></path><path d="M716,548 C852,514 1034,518 1200,476 L1200,800 L690,800 Z" fill="#314b43"></path></g><g data-motif="fence"><path d="M0,534 L1200,506" stroke="#9b684d" stroke-width="22"></path><path d="M0,620 L1200,586" stroke="#9b684d" stroke-width="18"></path><g><path d="M-20,668 L-13,490 L20,464 L52,489 L58,668 Z" fill="#9b684d" stroke="#d2a071" stroke-width="3" opacity="0.96"></path><path d="M80,654.38 L87,476.38 L120,450.38 L152,475.38 L158,654.38 Z" fill="#9b684d" stroke="#d2a071" stroke-width="3" opacity="0.96"></path><path d="M180,640.77 L187,462.77 L220,436.77 L252,461.77 L258,640.77 Z" fill="#9b684d" stroke="#d2a071" stroke-width="3" opacity="0.96"></path><path d="M280,666.15 L287,488.15 L320,462.15 L352,487.15 L358,666.15 Z" fill="#9b684d" stroke="#d2a071" stroke-width="3" opacity="0.96"></path><path d="M380,652.54 L387,474.54 L420,448.54 L452,473.54 L458,652.54 Z" fill="#9b684d" stroke="#d2a071" stroke-width="3" opacity="0.96"></path><path d="M480,638.92 L487,460.92 L520,434.92 L552,459.92 L558,638.92 Z" fill="#9b684d" stroke="#d2a071" stroke-width="3" opacity="0.96"></path><path d="M580,664.31 L587,486.31 L620,460.31 L652,485.31 L658,664.31 Z" fill="#9b684d" stroke="#d2a071" stroke-width="3" opacity="0.96"></path><path d="M680,650.69 L687,472.69 L720,446.69 L752,471.69 L758,650.69 Z" fill="#9b684d" stroke="#d2a071" stroke-width="3" opacity="0.96"></path><path d="M780,637.08 L787,459.08 L820,433.08 L852,458.08 L858,637.08 Z" fill="#9b684d" stroke="#d2a071" stroke-width="3" opacity="0.96"></path><path d="M880,662.46 L887,484.46 L920,458.46 L952,483.46 L958,662.46 Z" fill="#9b684d" stroke="#d2a071" stroke-width="3" opacity="0.96"></path><path d="M980,648.85 L987,470.85 L1020,444.85 L1052,469.85 L1058,648.85 Z" fill="#9b684d" stroke="#d2a071" stroke-width="3" opacity="0.96"></path><path d="M1080,635.23 L1087,457.23 L1120,431.23 L1152,456.23 L1158,635.23 Z" fill="#9b684d" stroke="#d2a071" stroke-width="3" opacity="0.96"></path><path d="M1180,660.62 L1187,482.62 L1220,456.62 L1252,481.62 L1258,660.62 Z" fill="#9b684d" stroke="#d2a071" stroke-width="3" opacity="0.96"></path></g></g><g class="scene-flower-bed" data-motif="flower-bed"><path d="M820,662 C944,602 1084,612 1200,570 L1200,800 L792,800 Z" fill="#25453e"></path><g><path d="M1155.62,703.95 Q1160.62,688.32 1157.62,672.68" fill="none" stroke="#607a4f" stroke-width="4" stroke-linecap="round"></path><path d="M1157.62,672.68 C1145.62,660.68 1137.62,676.68 1157.62,680.68 C1175.62,674.68 1169.62,659.68 1157.62,672.68 Z" fill="#e7bd68" opacity="0.82"></path></g><g><path d="M1011.44,699.98 Q1016.44,677 1013.44,654.01" fill="none" stroke="#607a4f" stroke-width="4" stroke-linecap="round"></path><path d="M1013.44,654.01 C1001.44,642.01 993.44,658.01 1013.44,662.01 C1031.44,656.01 1025.44,641.01 1013.44,654.01 Z" fill="#d78a86" opacity="0.82"></path></g><g><path d="M1003.74,646.29 Q1008.74,615.6 1005.74,584.91" fill="none" stroke="#607a4f" stroke-width="4" stroke-linecap="round"></path><path d="M1005.74,584.91 C993.74,572.91 985.74,588.91 1005.74,592.91 C1023.74,586.91 1017.74,571.91 1005.74,584.91 Z" fill="#b89ac0" opacity="0.82"></path></g><g><path d="M932.61,717.81 Q937.61,689.5 934.61,661.19" fill="none" stroke="#607a4f" stroke-width="4" stroke-linecap="round"></path><path d="M934.61,661.19 C922.61,649.19 914.61,665.19 934.61,669.19 C952.61,663.19 946.61,648.19 934.61,661.19 Z" fill="#e7bd68" opacity="0.82"></path></g><g><path d="M998.28,647.76 Q1003.28,620.29 1000.28,592.81" fill="none" stroke="#607a4f" stroke-width="4" stroke-linecap="round"></path><path d="M1000.28,592.81 C988.28,580.81 980.28,596.81 1000.28,600.81 C1018.28,594.81 1012.28,579.81 1000.28,592.81 Z" fill="#d78a86" opacity="0.82"></path></g><g><path d="M998.99,713.39 Q1003.99,695.85 1000.99,678.3" fill="none" stroke="#607a4f" stroke-width="4" stroke-linecap="round"></path><path d="M1000.99,678.3 C988.99,666.3 980.99,682.3 1000.99,686.3 C1018.99,680.3 1012.99,665.3 1000.99,678.3 Z" fill="#b89ac0" opacity="0.82"></path></g><g><path d="M1040.29,682.33 Q1045.29,660.9 1042.29,639.46" fill="none" stroke="#607a4f" stroke-width="4" stroke-linecap="round"></path><path d="M1042.29,639.46 C1030.29,627.46 1022.29,643.46 1042.29,647.46 C1060.29,641.46 1054.29,626.46 1042.29,639.46 Z" fill="#e7bd68" opacity="0.82"></path></g><g><path d="M1026.03,669.7 Q1031.03,650.55 1028.03,631.4" fill="none" stroke="#607a4f" stroke-width="4" stroke-linecap="round"></path><path d="M1028.03,631.4 C1016.03,619.4 1008.03,635.4 1028.03,639.4 C1046.03,633.4 1040.03,618.4 1028.03,631.4 Z" fill="#d78a86" opacity="0.82"></path></g><g><path d="M960.2,640.67 Q965.2,614.51 962.2,588.34" fill="none" stroke="#607a4f" stroke-width="4" stroke-linecap="round"></path><path d="M962.2,588.34 C950.2,576.34 942.2,592.34 962.2,596.34 C980.2,590.34 974.2,575.34 962.2,588.34 Z" fill="#b89ac0" opacity="0.82"></path></g><g><path d="M943.12,646.35 Q948.12,625.45 945.12,604.54" fill="none" stroke="#607a4f" stroke-width="4" stroke-linecap="round"></path><path d="M945.12,604.54 C933.12,592.54 925.12,608.54 945.12,612.54 C963.12,606.54 957.12,591.54 945.12,604.54 Z" fill="#e7bd68" opacity="0.82"></path></g><g><path d="M1137.79,655.21 Q1142.79,625.64 1139.79,596.06" fill="none" stroke="#607a4f" stroke-width="4" stroke-linecap="round"></path><path d="M1139.79,596.06 C1127.79,584.06 1119.79,600.06 1139.79,604.06 C1157.79,598.06 1151.79,583.06 1139.79,596.06 Z" fill="#d78a86" opacity="0.82"></path></g></g></g><g data-depth="focus"><g data-motif="shadow" data-shadow-elongation="20.4" transform="translate(270 650) rotate(-8) scale(5.1 0.25)" opacity="0.54"><g id="projected-shadow-character" class="scene-projected-shadow" data-pose="reach" data-line-of-action="-8" data-shoulder-tilt="-13" data-pelvis-tilt="7" data-head-turn="0.48"><ellipse data-contact-shadow="true" cx="2.18" cy="4.68" rx="57.31" ry="7.8" fill="#120f1c" opacity="0.28"></ellipse><g data-layer="skin"><g data-part="leftLeg"><path d="M-32.44,-86.92 L-39.54,-42.2 A6.87,6.87 0 0 1 -26.08,-39.54 L-15.6,-83.58 A8.58,8.58 0 0 1 -32.44,-86.92 Z" fill="#172238"></path><path d="M-39.47,-39.21 L-27.62,1.25 A5.15,5.15 0 0 1 -17.62,-1.25 L-26.15,-42.53 A6.87,6.87 0 0 1 -39.47,-39.21 Z" fill="#172238"></path><circle data-joint-cover="hip" data-side="left" cx="-24.02" cy="-85.25" r="9.95" fill="#172238"></circle><circle data-joint-cover="knee" data-side="left" cx="-32.81" cy="-40.87" r="9.06" fill="#172238"></circle><circle data-joint-cover="ankle" data-side="left" cx="-22.62" cy="0" r="6.8" fill="#172238"></circle><path d="M-39.47,-39.21 L-27.62,1.25 A5.15,5.15 0 0 1 -17.62,-1.25 L-26.15,-42.53 A6.87,6.87 0 0 1 -39.47,-39.21 Z" fill="#172238" opacity="0.16"></path></g><g data-part="rightLeg"><path d="M10.97,-74.9 L38.72,-41.45 A6.87,6.87 0 0 1 49.62,-49.79 L24.59,-85.32 A8.58,8.58 0 0 1 10.97,-74.9 Z" fill="#172238"></path><path d="M38.09,-48.8 L20.86,-12.18 A5.15,5.15 0 0 1 29.98,-7.4 L50.25,-42.44 A6.87,6.87 0 0 1 38.09,-48.8 Z" fill="#172238"></path><circle data-joint-cover="hip" data-side="right" cx="17.78" cy="-80.11" r="9.95" fill="#172238"></circle><circle data-joint-cover="knee" data-side="right" cx="44.17" cy="-45.62" r="9.06" fill="#172238"></circle><circle data-joint-cover="ankle" data-side="right" cx="25.42" cy="-9.79" r="6.8" fill="#172238"></circle><path d="M38.09,-48.8 L20.86,-12.18 A5.15,5.15 0 0 1 29.98,-7.4 L50.25,-42.44 A6.87,6.87 0 0 1 38.09,-48.8 Z" fill="#172238" opacity="0.16"></path></g><g data-part="pelvis"><path d="M-24.02,-85.25 L17.78,-80.11 Q4.25,-67.94 -3.12,-65.83 Q-10.49,-67.94 -24.02,-85.25 Z" fill="#172238"></path></g><g data-part="torso"><path d="M-21.86,-157.1 L-24.02,-85.25 Q-3.12,-76.44 17.78,-80.11 L23.74,-167.63 Q0.94,-167.04 -21.86,-157.1 Z" fill="#172238"></path></g><g data-part="head"><path d="M-21.86,-157.1 L5.3,-196.68 L23.74,-167.63 L23.74,-135.68 Q0.94,-130.07 -21.86,-135.68 Z" fill="#172238"></path><path d="M7.07,-161.58 L10.24,-196.05 A4.97,4.97 0 0 1 0.36,-197.31 L-5.19,-163.14 A6.18,6.18 0 0 1 7.07,-161.58 Z" fill="#172238"></path><path d="M9.08,-178.76 L10.41,-196.03 A5.15,5.15 0 0 1 0.19,-197.33 L-2.84,-180.28 A6.01,6.01 0 0 1 9.08,-178.76 Z" fill="#172238" opacity="0.18"></path><ellipse cx="5.3" cy="-196.68" rx="28.08" ry="28.08" fill="#172238" data-anatomy="cranium"></ellipse><ellipse cx="16.53" cy="-205.1" rx="11.23" ry="8.42" fill="#172238" opacity="0.4"></ellipse></g><g data-part="leftArm"><path d="M-28.13,-154.76 L-14.16,-121.68 A5.15,5.15 0 0 1 -4.5,-125.28 L-15.59,-159.44 A6.69,6.69 0 0 1 -28.13,-154.76 Z" fill="#172238"></path><path d="M-14.16,-121.7 L-2.07,-92.9 A3.78,3.78 0 0 1 5.01,-95.52 L-4.5,-125.26 A5.15,5.15 0 0 1 -14.16,-121.7 Z" fill="#172238"></path><circle data-joint-cover="shoulder" data-side="left" cx="-21.86" cy="-157.1" r="8.03" fill="#172238"></circle><circle data-joint-cover="elbow" data-side="left" cx="-9.33" cy="-123.48" r="7" fill="#172238"></circle><circle data-joint-cover="wrist" data-side="left" cx="1.47" cy="-94.21" r="5.44" fill="#172238"></circle><g transform="translate(1.47 -94.21) rotate(159.75) scale(-0.78 0.78)" data-anatomy="hand" data-hand-side="left" data-hand-pose="open"><path d="M-10,-2 C-15,-11 -10,-22 -2,-21 C0,-27 8,-27 8,-20 C13,-22 17,-15 13,-8 C18,-6 18,2 12,4 C15,10 10,14 3,14 L-6,14 C-15,14 -16,5 -10,-2 Z" fill="#172238"></path></g></g><g data-part="rightArm"><path d="M18.64,-163.3 L40.71,-139.68 A5.15,5.15 0 0 1 48.57,-146.34 L28.84,-171.96 A6.69,6.69 0 0 1 18.64,-163.3 Z" fill="#172238"></path><path d="M40.73,-139.66 L60.01,-119.22 A3.78,3.78 0 0 1 65.75,-124.12 L48.55,-146.36 A5.15,5.15 0 0 1 40.73,-139.66 Z" fill="#172238"></path><circle data-joint-cover="shoulder" data-side="right" cx="23.74" cy="-167.63" r="8.03" fill="#172238"></circle><circle data-joint-cover="elbow" data-side="right" cx="44.64" cy="-143.01" r="7" fill="#172238"></circle><circle data-joint-cover="wrist" data-side="right" cx="62.88" cy="-121.67" r="5.44" fill="#172238"></circle><g transform="translate(62.88 -121.67) rotate(139.48) scale(0.78 0.78)" data-anatomy="hand" data-hand-side="right" data-hand-pose="open"><path d="M-10,-2 C-15,-11 -10,-22 -2,-21 C0,-27 8,-27 8,-20 C13,-22 17,-15 13,-8 C18,-6 18,2 12,4 C15,10 10,14 3,14 L-6,14 C-15,14 -16,5 -10,-2 Z" fill="#172238"></path></g></g></g><g data-layer="hair"><path d="M-23.9,-191.06 Q5.3,-232 34.5,-191.06 L30.57,-199.49 Q5.3,-212.12 -19.97,-199.49 Z" fill="#172238"></path><path d="M-14.36,-207.91 q19.66,-5.62 39.31,0" stroke="#172238" stroke-width="1.56" fill="none" opacity="0.6"></path></g><g data-layer="garment"><path data-garment-outline="true" d="M-21.86,-157.1 C-26.13,-117.58 -31.01,-49.44 -31.01,-49.44 Q-1.22,-46.08 28.57,-50.58 C19.89,-119.49 23.74,-167.63 23.74,-167.63 Q0.94,-158.99 -21.86,-157.1 Z" fill="#172238"></path><g data-layer="garment-shadow"><path data-garment-fold="true" d="M0.94,-158.99 Q-5.02,-102.53 -1.22,-46.08" stroke="#172238" stroke-width="7.21" stroke-linecap="round" fill="none" opacity="0.32"></path><path data-garment-fold="true" d="M-31.01,-49.44 Q-26.13,-117.58 -21.86,-157.1" stroke="#172238" stroke-width="5.15" stroke-linecap="round" fill="none" opacity="0.26"></path></g><path data-garment-hem="true" d="M-31.01,-49.44 Q-1.22,-46.08 28.57,-50.58" stroke="#172238" stroke-width="2.03" stroke-linecap="round" fill="none" opacity="0.5"></path><path data-garment-sleeve="left" d="M-29.74,-154.16 L-20.76,-136.45 A6.18,6.18 0 0 1 -9.18,-140.77 L-13.98,-160.04 A8.41,8.41 0 0 1 -29.74,-154.16 Z" fill="#172238"></path><path data-garment-sleeve="right" d="M17.33,-162.19 L30.52,-150.09 A6.18,6.18 0 0 1 39.95,-158.09 L30.15,-173.07 A8.41,8.41 0 0 1 17.33,-162.19 Z" fill="#172238"></path><path d="M-7.48,-162.36 Q0.94,-148.32 9.36,-162.36" stroke="#172238" stroke-width="1.87" fill="none"></path></g><g data-layer="footwear"><g data-anatomy="foot" data-foot-side="left"><path d="M-17.47,0 L-18.24,-18.95 A4.38,4.38 0 0 1 -27,-18.95 L-27.77,0 A5.15,5.15 0 0 1 -17.47,0 Z" fill="#172238"></path><path d="M-14.04,-6.69 L-38.3,-5.77 A4.22,4.22 0 0 1 -38.3,2.68 L-14.04,3.61 A5.15,5.15 0 0 1 -14.04,-6.69 Z" fill="#172238"></path></g><g data-anatomy="foot" data-foot-side="right"><path d="M30.57,-9.79 L29.8,-28.74 A4.38,4.38 0 0 1 21.04,-28.74 L20.27,-9.79 A5.15,5.15 0 0 1 30.57,-9.79 Z" fill="#172238"></path><path d="M18.89,-3.75 L43.51,-12.87 A4.22,4.22 0 0 1 40.85,-20.89 L15.66,-13.53 A5.15,5.15 0 0 1 18.89,-3.75 Z" fill="#172238"></path></g></g><g data-layer="accessory"></g><g data-layer="face"><g><path d="M-9.68,-204.64 Q-2.38,-208.01 4.92,-204.64" stroke="#172238" stroke-width="1.72" stroke-linecap="round" fill="none" data-anatomy="brow"></path><path d="M-8.56,-199.49 Q-2.38,-202.86 3.8,-199.49" stroke="#172238" stroke-width="1.4" stroke-linecap="round" fill="none" opacity="0.5" data-anatomy="eyelid"></path><circle cx="1.21" cy="-192.58" r="2.81" fill="#172238" opacity="1" data-anatomy="pupil"></circle></g><g><path d="M10.54,-204.64 Q17.84,-208.01 25.14,-204.64" stroke="#172238" stroke-width="1.72" stroke-linecap="round" fill="none" data-anatomy="brow"></path><path d="M11.66,-199.49 Q17.84,-202.86 24.02,-199.49" stroke="#172238" stroke-width="1.4" stroke-linecap="round" fill="none" opacity="0.5" data-anatomy="eyelid"></path><circle cx="21.43" cy="-192.58" r="2.81" fill="#172238" opacity="1" data-anatomy="pupil"></circle></g><path d="M6.64,-196.12 Q10.16,-191.06 7.05,-188.26" stroke="#172238" stroke-width="1.33" stroke-linecap="round" fill="none" opacity="0.72" data-anatomy="nose-direction"></path><path d="M-1.26,-182.64 Q7.73,-174.84 16.72,-182.64" stroke="#172238" stroke-width="1.87" stroke-linecap="round" fill="none" data-anatomy="mouth" data-mouth-shape="curve"></path><g data-build-accent="child" fill="#f2a6a0" opacity="0.55"><circle cx="-8.74" cy="-186.85" r="4.49"></circle><circle cx="19.34" cy="-186.85" r="4.49"></circle></g></g><g data-layer="rim"><path d="M-22.78,-196.68 A28.08,28.08 0 0 1 5.3,-224.76" stroke="#172238" stroke-width="1.56" fill="none" opacity="0.6"></path><path d="M-21.86,-157.1 L-9.33,-123.48" stroke="#172238" stroke-width="1.25" stroke-linecap="round" fill="none" opacity="0.5"></path></g></g></g><g data-character-lighting="scene-leo"><ellipse cx="272.34" cy="657" rx="30.54" ry="7.8" fill="#0b1020" opacity="0.42" data-lighting="contact-shadow"></ellipse><g id="scene-leo-character" class="scene-leo" data-pose="reach" data-line-of-action="-8" data-shoulder-tilt="-13" data-pelvis-tilt="7" data-head-turn="0.48"><ellipse data-contact-shadow="true" cx="272.18" cy="654.68" rx="57.31" ry="7.8" fill="#120f1c" opacity="0.28"></ellipse><g data-layer="skin"><g data-part="leftLeg"><path d="M237.56,563.08 L230.46,607.8 A6.87,6.87 0 0 1 243.92,610.46 L254.4,566.42 A8.58,8.58 0 0 1 237.56,563.08 Z" fill="#d99066"></path><path d="M230.53,610.79 L242.38,651.25 A5.15,5.15 0 0 1 252.38,648.75 L243.85,607.47 A6.87,6.87 0 0 1 230.53,610.79 Z" fill="#d99066"></path><circle data-joint-cover="hip" data-side="left" cx="245.98" cy="564.75" r="9.95" fill="#d99066"></circle><circle data-joint-cover="knee" data-side="left" cx="237.19" cy="609.13" r="9.06" fill="#d99066"></circle><circle data-joint-cover="ankle" data-side="left" cx="247.38" cy="650" r="6.8" fill="#d99066"></circle><path d="M230.53,610.79 L242.38,651.25 A5.15,5.15 0 0 1 252.38,648.75 L243.85,607.47 A6.87,6.87 0 0 1 230.53,610.79 Z" fill="#9d5d47" opacity="0.16"></path></g><g data-part="rightLeg"><path d="M280.97,575.1 L308.72,608.55 A6.87,6.87 0 0 1 319.62,600.21 L294.59,564.68 A8.58,8.58 0 0 1 280.97,575.1 Z" fill="#d99066"></path><path d="M308.09,601.2 L290.86,637.82 A5.15,5.15 0 0 1 299.98,642.6 L320.25,607.56 A6.87,6.87 0 0 1 308.09,601.2 Z" fill="#d99066"></path><circle data-joint-cover="hip" data-side="right" cx="287.78" cy="569.89" r="9.95" fill="#d99066"></circle><circle data-joint-cover="knee" data-side="right" cx="314.17" cy="604.38" r="9.06" fill="#d99066"></circle><circle data-joint-cover="ankle" data-side="right" cx="295.42" cy="640.21" r="6.8" fill="#d99066"></circle><path d="M308.09,601.2 L290.86,637.82 A5.15,5.15 0 0 1 299.98,642.6 L320.25,607.56 A6.87,6.87 0 0 1 308.09,601.2 Z" fill="#9d5d47" opacity="0.16"></path></g><g data-part="pelvis"><path d="M245.98,564.75 L287.78,569.89 Q274.25,582.06 266.88,584.17 Q259.51,582.06 245.98,564.75 Z" fill="#d99066"></path></g><g data-part="torso"><path d="M248.14,492.9 L245.98,564.75 Q266.88,573.56 287.78,569.89 L293.74,482.37 Q270.94,482.96 248.14,492.9 Z" fill="#d99066"></path></g><g data-part="head"><path d="M248.14,492.9 L275.3,453.32 L293.74,482.37 L293.74,514.32 Q270.94,519.93 248.14,514.32 Z" fill="#d99066"></path><path d="M277.07,488.42 L280.24,453.95 A4.97,4.97 0 0 1 270.36,452.69 L264.81,486.86 A6.18,6.18 0 0 1 277.07,488.42 Z" fill="#d99066"></path><path d="M279.08,471.24 L280.41,453.97 A5.15,5.15 0 0 1 270.19,452.67 L267.16,469.72 A6.01,6.01 0 0 1 279.08,471.24 Z" fill="#9d5d47" opacity="0.18"></path><ellipse cx="275.3" cy="453.32" rx="28.08" ry="28.08" fill="#d99066" data-anatomy="cranium"></ellipse><ellipse cx="286.53" cy="444.9" rx="11.23" ry="8.42" fill="#f3b58d" opacity="0.4"></ellipse></g><g data-part="leftArm"><path d="M241.76,490.9 L232.49,525.59 A5.15,5.15 0 0 1 242.31,528.67 L254.52,494.9 A6.69,6.69 0 0 1 241.76,490.9 Z" fill="#d99066"></path><path d="M241.88,524.59 L225.28,498.14 A3.78,3.78 0 0 1 218.72,501.86 L232.92,529.67 A5.15,5.15 0 0 1 241.88,524.59 Z" fill="#d99066"></path><circle data-joint-cover="shoulder" data-side="left" cx="248.14" cy="492.9" r="8.03" fill="#d99066"></circle><circle data-joint-cover="elbow" data-side="left" cx="237.4" cy="527.13" r="7" fill="#d99066"></circle><circle data-joint-cover="wrist" data-side="left" cx="222" cy="500" r="5.44" fill="#d99066"></circle><g transform="translate(222 500) rotate(-29.58) scale(-0.78 0.78)" data-anatomy="hand" data-hand-side="left" data-hand-pose="open"><path d="M-10,-2 C-15,-11 -10,-22 -2,-21 C0,-27 8,-27 8,-20 C13,-22 17,-15 13,-8 C18,-6 18,2 12,4 C15,10 10,14 3,14 L-6,14 C-15,14 -16,5 -10,-2 Z" fill="#d99066"></path></g></g><g data-part="rightArm"><path d="M299.49,485.79 L314.66,457.23 A5.15,5.15 0 0 1 305.8,451.97 L287.99,478.95 A6.69,6.69 0 0 1 299.49,485.79 Z" fill="#d99066"></path><path d="M314.67,457.22 L327.74,432.34 A3.78,3.78 0 0 1 321.24,428.5 L305.79,451.98 A5.15,5.15 0 0 1 314.67,457.22 Z" fill="#d99066"></path><circle data-joint-cover="shoulder" data-side="right" cx="293.74" cy="482.37" r="8.03" fill="#d99066"></circle><circle data-joint-cover="elbow" data-side="right" cx="310.23" cy="454.6" r="7" fill="#d99066"></circle><circle data-joint-cover="wrist" data-side="right" cx="324.49" cy="430.42" r="5.44" fill="#d99066"></circle><g transform="translate(324.49 430.42) rotate(30.53) scale(0.78 0.78)" data-anatomy="hand" data-hand-side="right" data-hand-pose="open"><path d="M-10,-2 C-15,-11 -10,-22 -2,-21 C0,-27 8,-27 8,-20 C13,-22 17,-15 13,-8 C18,-6 18,2 12,4 C15,10 10,14 3,14 L-6,14 C-15,14 -16,5 -10,-2 Z" fill="#d99066"></path></g></g></g><g data-layer="hair"><path d="M246.1,458.94 Q275.3,418 304.5,458.94 L300.57,450.51 Q275.3,437.88 250.03,450.51 Z" fill="#43271f"></path><path d="M255.64,442.09 q19.66,-5.62 39.31,0" stroke="#714332" stroke-width="1.56" fill="none" opacity="0.6"></path></g><g data-layer="garment"><path data-garment-outline="true" d="M248.14,492.9 C243.87,532.42 238.99,600.55 238.99,600.55 Q268.78,603.92 298.57,599.42 C289.89,530.51 293.74,482.37 293.74,482.37 Q270.94,491.01 248.14,492.9 Z" fill="#e47d58"></path><g data-layer="garment-shadow"><path data-garment-fold="true" d="M270.94,491.01 Q264.98,547.47 268.78,603.92" stroke="#9f4f45" stroke-width="7.21" stroke-linecap="round" fill="none" opacity="0.32"></path><path data-garment-fold="true" d="M238.99,600.55 Q243.87,532.42 248.14,492.9" stroke="#9f4f45" stroke-width="5.15" stroke-linecap="round" fill="none" opacity="0.26"></path></g><path data-garment-hem="true" d="M238.99,600.55 Q268.78,603.92 298.57,599.42" stroke="#9f4f45" stroke-width="2.03" stroke-linecap="round" fill="none" opacity="0.5"></path><path data-garment-sleeve="left" d="M240.12,490.38 L236.34,509.88 A6.18,6.18 0 0 1 248.13,513.58 L256.16,495.42 A8.41,8.41 0 0 1 240.12,490.38 Z" fill="#e47d58"></path><path data-garment-sleeve="right" d="M300.97,486.66 L308.12,470.25 A6.18,6.18 0 0 1 297.5,463.94 L286.51,478.08 A8.41,8.41 0 0 1 300.97,486.66 Z" fill="#e47d58"></path><path d="M262.52,487.64 Q270.94,501.68 279.36,487.64" stroke="#f4c36c" stroke-width="1.87" fill="none"></path></g><g data-layer="footwear"><g data-anatomy="foot" data-foot-side="left"><path d="M252.53,650 L251.76,631.05 A4.38,4.38 0 0 1 243,631.05 L242.23,650 A5.15,5.15 0 0 1 252.53,650 Z" fill="#45352f"></path><path d="M255.96,643.31 L231.7,644.23 A4.22,4.22 0 0 1 231.7,652.68 L255.96,653.61 A5.15,5.15 0 0 1 255.96,643.31 Z" fill="#45352f"></path></g><g data-anatomy="foot" data-foot-side="right"><path d="M300.57,640.21 L299.8,621.26 A4.38,4.38 0 0 1 291.04,621.26 L290.27,640.21 A5.15,5.15 0 0 1 300.57,640.21 Z" fill="#45352f"></path><path d="M288.89,646.25 L313.51,637.13 A4.22,4.22 0 0 1 310.85,629.11 L285.66,636.47 A5.15,5.15 0 0 1 288.89,646.25 Z" fill="#45352f"></path></g></g><g data-layer="accessory"><g><path d="M245.98,561.63 L287.78,566.77" stroke="#31588e" stroke-width="5.46" stroke-linecap="round"></path><circle cx="266.88" cy="564.98" r="3.12" fill="#e8c16a"></circle></g></g><g data-layer="face"><g><path d="M260.32,445.36 Q267.62,441.99 274.92,445.36" stroke="#402820" stroke-width="1.72" stroke-linecap="round" fill="none" data-anatomy="brow"></path><path d="M261.44,450.51 Q267.62,447.14 273.8,450.51" stroke="#402820" stroke-width="1.4" stroke-linecap="round" fill="none" opacity="0.5" data-anatomy="eyelid"></path><circle cx="272.57" cy="454.84" r="2.81" fill="#402820" opacity="1" data-anatomy="pupil"></circle></g><g><path d="M280.54,445.36 Q287.84,441.99 295.14,445.36" stroke="#402820" stroke-width="1.72" stroke-linecap="round" fill="none" data-anatomy="brow"></path><path d="M281.66,450.51 Q287.84,447.14 294.02,450.51" stroke="#402820" stroke-width="1.4" stroke-linecap="round" fill="none" opacity="0.5" data-anatomy="eyelid"></path><circle cx="292.79" cy="454.84" r="2.81" fill="#402820" opacity="1" data-anatomy="pupil"></circle></g><path d="M276.64,453.88 Q280.16,458.94 277.05,461.74" stroke="#9d5d47" stroke-width="1.33" stroke-linecap="round" fill="none" opacity="0.72" data-anatomy="nose-direction"></path><path d="M268.74,467.36 Q277.73,475.16 286.72,467.36" stroke="#7c3940" stroke-width="1.87" stroke-linecap="round" fill="none" data-anatomy="mouth" data-mouth-shape="curve"></path><g data-build-accent="child" fill="#f2a6a0" opacity="0.55"><circle cx="261.26" cy="463.15" r="4.49"></circle><circle cx="289.34" cy="463.15" r="4.49"></circle></g></g><g data-layer="rim"><path d="M247.22,453.32 A28.08,28.08 0 0 1 275.3,425.24" stroke="#f3b58d" stroke-width="1.56" fill="none" opacity="0.6"></path><path d="M248.14,492.9 L237.4,527.13" stroke="#f3b58d" stroke-width="1.25" stroke-linecap="round" fill="none" opacity="0.5"></path></g></g><path d="M252.27,448.27 Q265.75,426.92 281.48,430.29 M248.14,492.9 L237.4,527.13" fill="none" stroke="#ffd79b" stroke-width="3.28" stroke-linecap="round" opacity="0.68" data-lighting="key"></path><path d="M293.74,490.37 Q297.78,583.89 302.74,643.14" fill="none" stroke="#87a9bd" stroke-width="4.68" stroke-linecap="round" opacity="0.3" data-lighting="fill"></path><path d="M300.01,451.07 Q294.39,433.66 280.35,428.61" fill="none" stroke="#ffe6bb" stroke-width="2.11" stroke-linecap="round" opacity="0.58" data-lighting="rim"></path></g><path d="M340,690 C518,646 678,620 872,568" fill="none" stroke="#f5ca83" stroke-width="12" opacity="0.34" stroke-linecap="round"></path></g><g data-depth="near"><g fill="none" stroke="#213b38" stroke-linecap="round"><path d="M520.64,800 Q523.65,753.42 529.25,715.31" stroke-width="3.82" opacity="0.7"></path><path d="M359.9,800 Q364.02,760.96 371.67,729.02" stroke-width="2.95" opacity="0.43"></path><path d="M693.17,800 Q697.72,762.62 706.17,732.03" stroke-width="3.04" opacity="0.78"></path><path d="M88.35,800 Q93.26,750.23 102.39,709.5" stroke-width="3" opacity="0.58"></path><path d="M835.4,800 Q839.16,767.97 846.14,741.77" stroke-width="3.93" opacity="0.83"></path><path d="M743.05,800 Q746.57,761.16 753.12,729.39" stroke-width="2.88" opacity="0.69"></path><path d="M1071.75,800 Q1077.18,776.71 1087.25,757.65" stroke-width="2.41" opacity="0.46"></path><path d="M913.78,800 Q917.79,753.65 925.23,715.72" stroke-width="4.21" opacity="0.86"></path><path d="M564.84,800 Q569.58,769.54 578.38,744.61" stroke-width="3.38" opacity="0.46"></path><path d="M494.9,800 Q497.67,756.02 502.8,720.04" stroke-width="2.67" opacity="0.49"></path><path d="M156.93,800 Q162.25,767.77 172.14,741.4" stroke-width="2.46" opacity="0.84"></path><path d="M1070.01,800 Q1075.44,763.82 1085.53,734.21" stroke-width="2.61" opacity="0.87"></path><path d="M1166.57,800 Q1170.39,757.31 1177.47,722.38" stroke-width="2.79" opacity="0.57"></path><path d="M262.31,800 Q265.33,760.15 270.95,727.54" stroke-width="3.9" opacity="0.56"></path><path d="M43.45,800 Q48.73,751.25 58.53,711.37" stroke-width="2.79" opacity="0.52"></path><path d="M393.13,800 Q398.09,753.74 407.3,715.89" stroke-width="3.65" opacity="0.44"></path><path d="M896.77,800 Q900.5,761.53 907.43,730.05" stroke-width="4.19" opacity="0.76"></path><path d="M1180,800 Q1183.52,773.59 1190.06,751.99" stroke-width="2.12" opacity="0.57"></path><path d="M2.39,800 Q7.34,762.35 16.52,731.54" stroke-width="4.53" opacity="0.86"></path><path d="M890.59,800 Q894.9,760.95 902.91,729" stroke-width="4.57" opacity="0.86"></path><path d="M222.69,800 Q225.56,772.29 230.89,749.62" stroke-width="3.36" opacity="0.61"></path><path d="M324.77,800 Q328.32,774.27 334.91,753.21" stroke-width="3.49" opacity="0.64"></path><path d="M393.65,800 Q398.69,766.5 408.06,739.09" stroke-width="2" opacity="0.47"></path><path d="M924.55,800 Q929.95,752.96 939.98,714.48" stroke-width="4.31" opacity="0.69"></path><path d="M237.97,800 Q242.92,772.48 252.1,749.97" stroke-width="4.48" opacity="0.6"></path><path d="M319.69,800 Q324,766.05 331.99,738.27" stroke-width="2.38" opacity="0.79"></path><path d="M962.06,800 Q966.94,769.97 976.01,745.4" stroke-width="4.32" opacity="0.59"></path><path d="M173.28,800 Q177.19,765.02 184.45,736.4" stroke-width="3.01" opacity="0.86"></path><path d="M506.24,800 Q511.61,772.51 521.57,750.02" stroke-width="4.47" opacity="0.43"></path><path d="M888.37,800 Q891.41,776.5 897.05,757.27" stroke-width="4.63" opacity="0.8"></path><path d="M13.76,800 Q17.04,755.59 23.14,719.25" stroke-width="2.61" opacity="0.78"></path><path d="M389.24,800 Q394.3,773.58 403.69,751.96" stroke-width="4.63" opacity="0.59"></path><path d="M1059.39,800 Q1063.78,762.17 1071.93,731.22" stroke-width="2.91" opacity="0.76"></path><path d="M724.86,800 Q728.84,758.05 736.22,723.72" stroke-width="2.33" opacity="0.59"></path><path d="M283.47,800 Q286.64,752.05 292.54,712.82" stroke-width="2.92" opacity="0.55"></path><path d="M1109.43,800 Q1113.15,757.35 1120.05,722.46" stroke-width="3.93" opacity="0.69"></path><path d="M119.4,800 Q122.72,773.33 128.88,751.5" stroke-width="4.78" opacity="0.73"></path><path d="M649.42,800 Q653.96,754.14 662.38,716.62" stroke-width="4.39" opacity="0.49"></path><path d="M466.76,800 Q470.28,753.65 476.82,715.72" stroke-width="3.26" opacity="0.54"></path><path d="M80.08,800 Q85.51,752.91 95.6,714.38" stroke-width="2.7" opacity="0.53"></path><path d="M1183.85,800 Q1186.86,774.92 1192.44,754.4" stroke-width="4.09" opacity="0.45"></path><path d="M253.5,800 Q258.68,756.46 268.3,720.84" stroke-width="3.44" opacity="0.85"></path><path d="M793.41,800 Q798.48,749.21 807.9,707.65" stroke-width="3.71" opacity="0.62"></path><path d="M703.47,800 Q707.99,769.36 716.39,744.29" stroke-width="3.43" opacity="0.53"></path><path d="M1148.67,800 Q1152.12,760.9 1158.54,728.9" stroke-width="2.76" opacity="0.62"></path><path d="M508.91,800 Q511.76,748.56 517.05,706.48" stroke-width="2.24" opacity="0.78"></path><path d="M142.58,800 Q146.58,767.39 154.01,740.7" stroke-width="4.22" opacity="0.71"></path><path d="M830.37,800 Q835.9,761.21 846.16,729.47" stroke-width="4.34" opacity="0.47"></path><path d="M907.02,800 Q912.45,760.87 922.54,728.85" stroke-width="2.55" opacity="0.55"></path><path d="M710.07,800 Q714.27,766.13 722.08,738.42" stroke-width="2.59" opacity="0.56"></path><path d="M339.18,800 Q342.03,762.22 347.33,731.31" stroke-width="4.17" opacity="0.7"></path><path d="M1116.86,800 Q1120.95,773.53 1128.54,751.87" stroke-width="3.21" opacity="0.63"></path><path d="M1108.8,800 Q1113.69,757.13 1122.76,722.05" stroke-width="3.46" opacity="0.49"></path><path d="M200.54,800 Q203.59,774.55 209.25,753.73" stroke-width="3.23" opacity="0.62"></path><path d="M62.72,800 Q66.03,761.93 72.18,730.79" stroke-width="3.26" opacity="0.5"></path><path d="M83.15,800 Q86.9,765.15 93.86,736.63" stroke-width="3.1" opacity="0.68"></path><path d="M592.56,800 Q595.63,761.45 601.33,729.91" stroke-width="4.14" opacity="0.62"></path><path d="M987.04,800 Q991.89,761.07 1000.89,729.21" stroke-width="2.77" opacity="0.72"></path><path d="M1120.55,800 Q1126.05,772.5 1136.26,750" stroke-width="2.41" opacity="0.65"></path><path d="M737.36,800 Q741.99,755.55 750.59,719.19" stroke-width="2.96" opacity="0.64"></path><path d="M459.91,800 Q464.41,772.43 472.77,749.88" stroke-width="3.57" opacity="0.8"></path><path d="M356.95,800 Q360.95,752.08 368.39,712.88" stroke-width="2.61" opacity="0.66"></path><path d="M822.01,800 Q824.82,777.25 830.04,758.64" stroke-width="4.44" opacity="0.63"></path><path d="M1009.69,800 Q1015.2,776.98 1025.44,758.15" stroke-width="4.67" opacity="0.53"></path></g><path d="M972,800 C1008,710 1098,680 1200,704 L1200,800 Z" fill="#183137"></path></g><rect x="0" y="0" width="1200" height="800" fill="url(#shadowVignette)" class="scene-vignette" pointer-events="none"></rect></g></svg>
